PathFileType	4	(X/Y/Z)	C:/Users/opensim2020/Desktop/walking_exp_matlab/subject02_walking08_straight_03.trc	
DataRate	CameraRate	NumFrames	NumMarkers	Units	OrigDataRate	OrigDataStartFrame	OrigNumFrames	
100.00	100.00	4	41	mm	100.00	2278	252	
Frame#	Time	LFHD			RFHD			LBHD			RBHD			C7			T10			CLAV			STRN			RBAK			LSHO			LUPA			LELB			LFRM			LWRA			LWRB			LFIN			RSHO			RUPA			RELB			RFRM			RWRA			RWRB			RFIN			LASI			RASI			LPSI			RPSI			LTHI			LKNE			LTIB			LANK			LHEE			LTOE			RTHI			RKNE			RTIB			RANK			RHEE			RTOE			*39			*40			
		X1	Y1	Z1	X2	Y2	Z2	X3	Y3	Z3	X4	Y4	Z4	X5	Y5	Z5	X6	Y6	Z6	X7	Y7	Z7	X8	Y8	Z8	X9	Y9	Z9	X10	Y10	Z10	X11	Y11	Z11	X12	Y12	Z12	X13	Y13	Z13	X14	Y14	Z14	X15	Y15	Z15	X16	Y16	Z16	X17	Y17	Z17	X18	Y18	Z18	X19	Y19	Z19	X20	Y20	Z20	X21	Y21	Z21	X22	Y22	Z22	X23	Y23	Z23	X24	Y24	Z24	X25	Y25	Z25	X26	Y26	Z26	X27	Y27	Z27	X28	Y28	Z28	X29	Y29	Z29	X30	Y30	Z30	X31	Y31	Z31	X32	Y32	Z32	X33	Y33	Z33	X34	Y34	Z34	X35	Y35	Z35	X36	Y36	Z36	X37	Y37	Z37	X38	Y38	Z38	X39	Y39	Z39	X40	Y40	Z40	X41	Y41	Z41	

64	0.630	-1009.70563	-693.88190	1713.40649	-870.86218	-729.42682	1698.94568	-1048.43042	-830.07434	1660.76770	-913.82123	-877.06104	1646.11328	-966.83942	-924.83881	1528.77588	-958.08752	-1001.99823	1254.64124	-981.58533	-792.99506	1447.01514	-969.44739	-753.41278	1273.29590	-893.89130	-994.21002	1358.51599	-1146.60132	-870.06219	1494.16895	-1230.54370	-920.44183	1303.23193	-1247.63440	-948.71967	1167.03735	-1274.67615	-964.33551	1038.28711	-1273.63464	-923.37299	904.62085	-1290.21960	-976.38629	915.70313	-1304.98853	-966.66016	850.78815	-784.83801	-840.24860	1491.73010	-687.82959	-845.92822	1303.92981	-665.70654	-811.45428	1161.06836	-648.12732	-759.55737	1052.89307	-669.19598	-687.75714	938.72784	-633.51367	-730.78912	926.21814	-631.94135	-679.79651	874.43134	-1096.44702	-775.95404	987.06488	-838.95880	-784.39954	966.53949	-1020.89783	-987.72968	1031.26807	-906.25433	-997.23651	1031.00378	-1174.47217	-781.50543	685.55048	-1149.78455	-740.40912	490.48541	-1157.93103	-748.73688	297.11307	-1142.28430	-687.04425	79.67035	-1088.37427	-710.21802	45.73339	-1161.19641	-530.29492	71.37027	-797.12915	-899.42688	664.09912	-847.34668	-930.13708	456.84491	-851.02423	-995.66125	279.75693	-898.57404	-1033.28125	90.29327	-958.07465	-1068.44910	37.43693	-871.75092	-886.68182	31.98686	-943.68433	-800.86072	1796.85803	-3360.22534	2845.16016	1034.10217 
65	0.640	-1010.94037	-686.61908	1712.24597	-872.09723	-722.05731	1698.00378	-1049.37744	-822.83472	1659.45349	-914.72131	-869.53070	1645.17908	-967.47943	-917.37103	1527.46252	-958.93781	-994.42059	1253.38171	-982.08783	-785.42963	1445.69629	-969.62860	-745.91888	1272.08264	-894.55841	-987.53503	1357.80334	-1147.27979	-862.47406	1492.66968	-1230.95679	-912.64337	1301.63391	-1248.06104	-940.96997	1165.62939	-1275.23291	-956.88098	1036.83105	-1274.14685	-916.20068	902.97217	-1290.55017	-969.14886	914.37347	-1305.42834	-959.58099	849.24396	-785.42578	-832.86591	1490.83557	-688.39374	-836.94104	1302.92249	-666.44592	-801.14447	1160.21960	-649.06647	-748.43597	1052.50122	-671.28546	-675.43854	939.21924	-634.79095	-718.14392	926.15845	-633.46295	-666.40009	875.03784	-1095.78418	-767.53363	985.75696	-838.39130	-777.26459	965.46674	-1021.58771	-979.72754	1029.87476	-907.09833	-989.76514	1029.72290	-1174.52637	-773.63403	684.17267	-1149.41785	-730.41711	489.57321	-1158.34595	-732.99811	296.13928	-1143.06982	-664.33051	80.61593	-1089.72314	-687.45679	46.19893	-1159.79431	-506.91257	75.58916	-797.16980	-893.83759	663.34619	-847.28119	-926.13281	456.29428	-851.09497	-993.22742	279.75632	-898.74817	-1032.52039	90.62786	-958.53387	-1067.71606	37.48087	-871.65887	-886.71985	32.01843	-945.10840	-793.61090	1795.60156	-3360.17651	2845.20459	1034.00684 
66	0.650	-1012.17334	-679.33875	1711.04736	-873.31287	-714.59705	1697.33875	-1050.51733	-815.47650	1658.11096	-915.81281	-862.11945	1643.89563	-968.31482	-909.79028	1526.12878	-959.79236	-986.73877	1252.11816	-982.74072	-777.85968	1444.41284	-969.91223	-738.25732	1270.80432	-895.50995	-979.12860	1356.26111	-1148.03174	-854.77423	1491.09839	-1231.86108	-904.96539	1300.15381	-1248.57227	-933.17993	1164.05518	-1275.70691	-949.39032	1035.34216	-1274.74500	-908.90027	901.38770	-1291.18811	-961.93872	912.80078	-1305.89160	-952.45245	847.66473	-786.21429	-825.16626	1489.63293	-689.00385	-828.42505	1301.65198	-667.28180	-791.63562	1159.38464	-650.27454	-737.01385	1052.12488	-672.34436	-662.92932	939.63330	-636.29846	-705.48749	925.98163	-634.99548	-653.46545	875.38428	-1095.23279	-758.99915	984.24170	-837.92358	-770.11511	964.32983	-1022.42285	-971.62842	1028.42798	-908.01648	-982.15332	1028.37732	-1174.63953	-765.30536	682.86078	-1149.05615	-720.63879	488.59143	-1158.40637	-717.48865	295.19104	-1143.69812	-642.64789	81.75805	-1090.24500	-665.36182	46.68188	-1158.43701	-484.84442	79.64619	-797.22766	-888.25781	662.55780	-847.47644	-921.58252	455.54956	-851.24933	-990.80444	279.85452	-898.95013	-1032.02124	91.10830	-958.75385	-1067.51819	38.19472	-871.59290	-886.69659	31.89467	-946.37457	-786.18280	1794.59436	-3360.32080	2845.22339	1033.80396 
67	0.660	-1013.66980	-671.92462	1709.91772	-874.66449	-707.01880	1696.07361	-1052.10706	-808.29303	1656.83899	-916.91107	-854.36853	1642.84338	-969.20599	-902.12830	1524.74329	-960.85620	-978.94293	1250.77759	-983.57434	-770.05798	1443.11304	-970.27118	-730.47681	1269.45972	-896.43207	-972.21198	1355.03796	-1148.98340	-846.91321	1489.53223	-1232.38660	-896.86023	1298.45422	-1249.10730	-925.36212	1162.44983	-1276.29590	-941.79016	1033.75574	-1275.27942	-901.58630	899.75507	-1291.81165	-954.62079	911.26709	-1306.31628	-945.28967	845.96088	-786.93939	-817.52380	1488.18628	-690.11804	-819.93854	1300.24353	-668.14929	-781.25336	1158.30640	-651.69049	-726.04425	1051.58398	-674.25110	-650.43475	939.85309	-637.92133	-693.23267	925.76190	-636.97833	-640.65192	875.84039	-1094.85217	-750.33978	982.55554	-837.56903	-762.80914	963.12427	-1023.24908	-963.52020	1027.00623	-908.87482	-974.69348	1027.13367	-1174.63110	-756.47968	681.62006	-1148.67114	-711.09991	487.47818	-1158.47949	-702.93719	294.31616	-1143.94702	-622.06775	82.89672	-1090.76453	-644.06659	47.24134	-1157.17224	-463.80389	83.62675	-797.39569	-882.56293	661.75983	-847.57996	-917.35632	454.96127	-851.40375	-988.41016	279.98770	-899.24182	-1031.51685	91.67873	-959.12329	-1067.40710	38.89402	-871.39807	-886.61743	31.91067	-947.87543	-778.86041	1793.32678	-3360.12622	2845.13379	1033.97974 
